/* XPM */
static char *c875b2c529d54688ddb4a84b30ad89e2ScNJWq50O09UkhLN[] = {
/* columns rows colors chars-per-pixel */
"64 64 168 2 ",
"   c #B6B466",
".  c #B9B767",
"X  c #BBBA67",
"o  c #B7B568",
"O  c #B9B768",
"+  c #BDBC6A",
"@  c #C0BF6B",
"#  c #BFC06A",
"$  c #C5C46D",
"%  c #C8C76E",
"&  c #C7C86D",
"*  c #C9C96E",
"=  c #C8C86F",
"-  c #C9C86F",
";  c #C9C96F",
":  c #C9C86E",
">  c #CAC86E",
",  c #CAC96E",
"<  c #CAC86F",
"1  c #CAC96F",
"2  c #CBC96F",
"3  c #CACA6E",
"4  c #CBCA6E",
"5  c #CACA6F",
"6  c #CBCA6F",
"7  c #CACB6F",
"8  c #CBCB6F",
"9  c #C9C96D",
"0  c #CCCB6E",
"q  c #CCCB6F",
"w  c #CCCC6E",
"e  c #CCCC6F",
"r  c #CDCD6F",
"t  c #CECE6F",
"y  c #CFCF6F",
"u  c #CACA6E",
"i  c #C8C770",
"p  c #C9C770",
"a  c #C9C870",
"s  c #C9C970",
"d  c #CAC870",
"f  c #CAC970",
"g  c #CBC970",
"h  c #CBC971",
"j  c #CACA70",
"k  c #CBCA70",
"l  c #CBCB70",
"z  c #CBCA71",
"x  c #CBCB71",
"c  c #CCCA70",
"v  c #CCCB70",
"b  c #CDCB70",
"n  c #CCCA71",
"m  c #CCCB71",
"M  c #CDCB71",
"N  c #CBCC70",
"B  c #CCCC70",
"V  c #CDCC70",
"C  c #CDCD70",
"Z  c #CCCC71",
"A  c #CDCC71",
"S  c #CDCD71",
"D  c #CECD70",
"F  c #CECC71",
"G  c #CECD71",
"H  c #CDCE71",
"J  c #CECE70",
"K  c #CFCE70",
"L  c #CECF70",
"P  c #CFCF70",
"I  c #CECE71",
"U  c #CFCE71",
"Y  c #CECF71",
"T  c #CFCF71",
"R  c #CDCD72",
"E  c #CECC72",
"W  c #CECD72",
"Q  c #CFCD72",
"!  c #CECE72",
"~  c #CFCE72",
"^  c #CFCF72",
"/  c #CFCF73",
"(  c #CDCC71",
")  c #D0CF71",
"_  c #D0CF72",
"`  c #D0CF73",
"'  c #D0CF72",
"]  c #CFD071",
"[  c #CFD072",
"{  c #CFD071",
"}  c #D0D070",
"|  c #D0D071",
" . c #D1D071",
".. c #D1D171",
"X. c #D2D271",
"o. c #D0D072",
"O. c #D1D072",
"+. c #D1D172",
"@. c #D0D073",
"#. c #D1D073",
"$. c #D1D173",
"%. c #D2D172",
"&. c #D2D173",
"*. c #D1D273",
"=. c #D2D272",
"-. c #D3D272",
";. c #D3D372",
":. c #D2D273",
">. c #D3D273",
",. c #D2D373",
"<. c #D3D373",
"1. c #D4D372",
"2. c #D4D373",
"3. c #D3D473",
"4. c #D4D472",
"5. c #D4D473",
"6. c #D5D473",
"7. c #D5D573",
"8. c #D6D673",
"9. c #D2D174",
"0. c #D2D274",
"q. c #D3D274",
"w. c #D3D374",
"e. c #D4D374",
"r. c #D4D474",
"t. c #D5D474",
"y. c #D5D574",
"u. c #D5D475",
"i. c #D5D575",
"p. c #D6D574",
"a. c #D6D575",
"s. c #D6D674",
"d. c #D7D774",
"f. c #D6D675",
"g. c #D7D675",
"h. c #D6D775",
"j. c #D7D775",
"k. c #D7D676",
"l. c #D7D776",
"z. c #D3D373",
"x. c #D8D775",
"c. c #D8D776",
"v. c #D8D775",
"b. c #D7D875",
"n. c #D8D875",
"m. c #D9D875",
"M. c #D8D975",
"N. c #D9D975",
"B. c #D8D876",
"V. c #D9D876",
"C. c #D8D976",
"Z. c #D9D976",
"A. c #D9D877",
"S. c #D9D977",
"D. c #DAD976",
"F. c #D9DA76",
"G. c #DADA76",
"H. c #DADB76",
"J. c #DADA77",
"K. c #DADB77",
"L. c #DBDB77",
"P. c #DBDC77",
"I. c #DCDC77",
"U. c #DADA77",
"Y. c #DBDB78",
"T. c #DCDC78",
"R. c #DCDD78",
"E. c #DBDB78",
/* pixels */
"~ B.B.B.~ i.B.B.~ i.i.B.~ e.B.i.- &.&.i.~ &.B.i.~ 2.i.i.~ e.B.2.f &.i.i.~ &.B.&.- &.i.5.~ i.B.i.~ &.&.i.~ e.B.b.~ i.i.x.~ i.B.B.",
"~ ` $ ~ ~ i.B.i.m ~ $ - - &.B.i.- f @ % - ~ i.&.m ~ @ f ~ &.i.2.~ m @ m ~ &.B.5.- - @ f - &.B.i.f m $ - - w.i.e.~ ~ @ m ~ i.B.B.",
"&.m % p ` i.B.i.` % $ $ ~ &.B.i.~ % % $ - &.B.i.~ f % % ~ &.B.i.~ f $ $ ~ &.5.&.&.% @ % m &.B.i.~ % % % f &.B.i.&.f % p ~ i.Y.B.",
"~ &.&.` ~ i.B.i.m ~ ~ ~ - &.i.&.- f f f f ~ 5.i.% f ~ ~ % &.B.i.% m ~ ~ f i.B.&.- ~ ~ m m &.B.i.~ ~ ~ ~ f &.B.i.f ~ &.&.~ i.T.Y.",
"&.i.B.i.~ i.i.i.f &.B.&.% &.&.&.f &.3.~ f &.&.&.~ &.B.i.~ i.w.i.~ ~ B.&.~ &.i.i.f ~ i.&.f &.w.&.f w.i.~ f i.&.i.~ &.i.i.~ i.B.B.",
"~ i.B.B.~ ~ $ m ~ w.i.i.f f @ % f &.B.i.% f + % f &.i.w.f ~ @ % f w.i.i.f % X f % ~ i.i.% f @ % % &.i.w.f m + % f &.B.i.~ ~ $ ~ ",
"` i.B.i.&.f % % ` i.x.&.~ % $ $ f ~ 5.i.~ $ $ % - &.B.&.m f $ $ ~ w.i.&.~ % $ $ - w.B.r.~ % $ $ ~ &.i.i.f % $ $ ~ &.b.i.&.f % f ",
"~ i.T.B.m ~ ` ~ - i.B.&.f ~ - m - ~ i.5.% m ~ ~ % &.B.i.f m ~ ` - &.B.&.% f - - - &.3.&.- f ~ ~ % &.B.&.% f ~ ~ - &.B.B.~ ` &.w.",
"` i.B.B.~ &.B.i.~ i.2.i.~ &.i.` - &.&.&.- &.5.` m &.2.i.f &.B.&.- &.i.i.~ ~ 5.i.- &.&.2.~ &.5.&.~ i.2.&.- &.B.2.- i.i.i.` i.B.B.",
"~ ` $ m ~ 2.B.i.f m @ % % ` x.&.- - + - - ~ 5.&.m ~ + - m i.x.5.- f @ - % &.B.2.- - + - f &.i.i.f - @ - - e.B.i.~ ~ @ f ~ i.T.T.",
"&.m % % ` i.B.i.~ f $ $ - &.B.i.- % $ % - &.5.2.~ % $ % ~ &.B.i.~ % % % ~ i.i.&.~ % $ % ~ &.B.x.~ % $ $ ~ &.B.i.~ f % % &.i.B.B.",
"~ &.&.` ~ i.B.i.m ~ ~ ~ % &.B.2.% ~ ~ - % &.i.i.m ~ ~ &.- &.B.&.f ~ ` ~ - i.i.&.- % ~ m - &.i.i.f m ~ f % &.i.i.f ~ ` ` ~ i.T.B.",
"&.i.B.i.~ i.i.B.~ &.i.&.m &.i.i.m &.5.~ - ~ &.&.~ ~ i.i.m &.i.&.f ~ i.&.f &.&.&.~ ~ 5.~ - i.e.&.~ &.i.&.m &.&.i.~ &.B.i.~ i.B.B.",
"~ i.I.B.~ ~ @ m f &.i.&.% % + % % &.i.&.- % + $ % &.i.i.f m @ % f ~ &.i.% % + - - ~ i.&.% f + % f w.B.e.% % @ % f w.B.B.~ ~ $ ~ ",
"` i.B.i.~ f % % ~ &.B.&.f $ + % f ~ i.&.f $ $ $ % &.i.w.~ f $ $ f ~ i.&.f % $ % f ~ &.~ ~ $ $ $ f &.i.~ f % $ $ f &.i.i.&.f p f ",
"~ i.T.i.f ~ ~ ~ f w.B.w.- - f f % ~ i.i.- - - % - ~ i.w.f ~ m f % ~ i.~ % % - f % - B.i.% % f f % &.i.&.f ~ m f f &.B.i.~ ` &.w.",
"` i.x.i.~ &.B.i.~ i.i.&.- ~ i.~ - ~ &.&.- - i.&.- ~ &.&.f &.i.~ ~ 2.&.&.f ~ &.&.f ~ &.&.f ~ i.&.f w.i.&.f ~ i.&.~ &.i.i.~ w.B.B.",
"~ ~ $ m ~ &.B.i.f m + % f &.5.&.- - X % - ~ B.i.- - @ - - w.B.2.- - + % - ~ 5.5.- % + % % &.i.&.- f + % - &.5.&.- m @ f ~ i.T.T.",
"&.m % f ~ e.B.i.~ - % % m &.i.&.~ % $ % f ~ 5.&.- % $ $ m &.i.&.~ % @ $ - ` 5.&.~ % $ % - ~ 5.i.~ % $ % ~ &.B.&.~ - % % ~ i.B.B.",
"~ &.&.` f i.B.i.f ~ ~ m - &.&.&.- - - - % ~ i.5.% - m ~ - &.B.5.- ~ ~ % % &.5.5.% - ~ m - ` i.i.- f m m - &.B.i.- ~ ~ ` ~ i.T.B.",
"&.i.B.i.~ i.i.i.~ &.x.&.m &.&.~ % ~ 5.&.- &.&.2.~ ~ 2.i.m &.&.&.~ ` i.&.- &.&.&.- ~ 5.&.f &.&.&.f ` 5.` - &.i.5.m &.B.i.~ i.B.B.",
"~ i.B.B.~ m @ f f &.i.&.- - + % % &.3.] $ % + % - &.i.i.- - + % - &.B.&.% % + % % y 5.5.- - + % % &.5.&.- ~ + % - &.B.i.~ ` $ ~ ",
"` i.B.i.` - $ % ~ &.i.&.f % $ $ - ~ &.&.- $ $ % ~ ~ 5.&.f % @ $ - e.i.&.- $ + $ % ~ i.5.m $ $ $ - &.i.w.~ % $ $ ~ &.B.i.` f p f ",
"~ i.I.i.~ ~ ~ m % w.i.~ % m f - % - &.&.$ % - ~ % ~ i.&.% f f f - &.i.~ % % - - $ &.i.&.% - f f % ` i.i.- f f ~ - &.B.i.m ~ &.w.",
"` i.i.B.~ &.i.&.f w.&.&.f ~ w.f = e ~ ~ % ~ 5.~ - ~ &.&.f ~ w.w.f ~ ~ &.% f &.~ % ] &.~ - ~ i.~ % ~ ~ ~ - ~ i.&.~ &.w.i.~ w.B.B.",
"~ ~ $ m ~ &.B.i.f f + p - ~ &.&.% % X % % &.5.&.% f + % % ~ i.&.% % + % - ~ &.~ % $ X $ % ~ i.&.% % + $ % ~ i.i.f f + f ~ i.B.Y.",
"&.~ % % ~ i.B.i.~ % $ $ f ~ &.&.- $ + + % - &.~ f % $ $ f ~ i.~ - $ $ $ f ~ &.~ - % @ @ f &.i.&.- $ $ $ f ~ i.&.~ % $ % ~ i.B.B.",
"~ ` &.~ f w.B.i.- f m % % ~ i.&.- % - % % ~ &.y % f m m % ~ i.i.% - m f % ~ &.~ % - - - - &.i.&.% - m - % ] B.i.- f ~ ~ f i.I.B.",
"&.i.B.i.~ i.i.i.~ ` i.&.- ~ &.&.- ~ &.e - &.&.&.m ~ i.` - &.&.&.- ~ i.&.- y ` &.- ~ &.~ - &.&.&.f ~ 2.&.- &.&.5.~ &.i.5.~ i.x.B.",
"~ i.B.i.~ ~ @ - - &.i.&.% - + % % y &.] % % X % - &.5.&.- - + % % ~ 2.&.- % X $ % &.&.&.% - @ % % ` i.&.% - + - - &.B.i.~ ~ $ ~ ",
"` i.B.i.&.f $ % ~ &.i.&.- % @ $ - ~ &.y % % @ $ % &.x.&.- % $ $ - ~ &.&.m $ $ $ - y &.~ m % $ $ m &.i.&.- $ $ % ~ &.i.i.&.f % f ",
"~ i.P.i.f ~ ~ ~ % &.i.&.% % % - % - &.~ % % - % % &.i.&.- f ~ - % y 5.&.% - - - % y &.] % - f - $ ` x.&.% f - m - &.B.i.~ ~ &.e.",
"` i.i.i.~ &.B.&.m &.&.&.% f 2.~ % ~ &.] - q &.~ % ] &.&.% ~ i.` % ~ ~ ] % - y y - y ~ &.% ~ &.~ % ~ &.` - ~ 2.&.f &.i.i.~ w.B.B.",
"~ ~ $ f f w.B.i.% f + % % ~ &.~ % %   $ % - &.&.% % X $ % ~ i.~ % % X % % y &.- % % o $ $ ~ i.w.% % + $ $ ~ i.&.f f + f m i.B.T.",
"&.f % % ~ w.i.&.f $ $ @ % ~ &.&.% @ + X % - ~ ~ % % @ $ - ~ w.~ % $ + $ - ~ ] ~ % $ X + - ~ w.~ % % @ @ f f r.&.f $ $ % ~ i.B.B.",
"~ ` ` ~ f w.B.i.- - f f $ f &.&.% - % % $ N ~ N % % f - % &.i.` % % f % $ - ] ] $ % f % % ~ &.~ % % f f % ~ 5.&.% f ~ ~ f i.T.B.",
"&.i.B.i.~ i.i.i.f ` i.~ % ~ &.~ = - y y % y &.~ - f &.~ % ` &.&.f ~ &.~ % ~ ~ y % ~ &.~ % &.&.` - f &.&.- ~ &.&.f ~ i.&.~ i.x.B.",
"~ i.B.i.~ m @ % - &.i.&.- % X $ $ - &.y % % + % % &.3.&.% % + % % ~ &.&.% $ . $ % ` &.&.% % + $ % ~ &.&.% % + % - &.5.i.m ~ $ ~ ",
"` i.B.i.~ - $ % ~ ` i.2.- $ + $ - - &.y - % @ $ - ` i.` - $ @ $ - ~ 3.] - $ X + % &.5.~ N % $ $ % ~ &.&.~ % $ % ~ &.i.5.` f % f ",
"~ i.I.i.f ~ ~ m % ` i.2.% % - - % - y - $ - - % % ~ i.&.$ - - m - ~ i.&.% - $ % $ y &.&.% - m - % ~ 5.&.$ f - m - &.B.i.f ~ &.w.",
"` i.i.i.~ &.x.&.- &.&.2.- q 5.~ % ~ 9 y $ ~ &.y % &.&.&.% m 2.~ % &.~ &.- - &.- $ y - &.% y 2.` - ` ~ ~ % ~ 2.&.- &.i.i.~ w.B.B.",
"~ ~ $ f m w.B.i.% - + % % ~ &.&.% $ . + $ - - &.$ % + % % ~ &.` $ % X % % y &.] $ $ X $ $ ~ 5.&.% % + $ % ~ 5.&.- - + - m i.B.Y.",
"&.f % % ~ &.x.&.m $ @ @ $ ~ ~ ~ % $ + @ $ - &.~ % $ @ $ - ~ &.~ f $ + $ % - &.e % $ + $ % m &.~ f $ + $ % ~ i.&.- % $ % ~ i.B.B.",
"~ ` ~ ~ f &.i.w.- f % % % f ~ ~ $ % % % + - &.~ $ % % % % f &.&.$ % - % + - &.- + % % % % f ~ N % $ $ $ $ f i.&.% - ~ ~ - i.B.B.",
"` i.B.i.m w.w.w.f m &.~ % ~ ~ - $ % ~ % $ ~ f ~ % - ~ f % - f ~ % - ] f $ = - - # % ~ - % f f ~ % f ~ f $ f ~ ~ - ~ i.&.~ i.i.B.",
"~ i.B.i.f f + % - ~ &.` % % X $ # = ] - + $ . $ % m ~ ~ % % . $ $ - &.~ $ $ . $ $ - ~ ~ $ $ X $ $ f &.~ $ % X % % &.i.5.~ ~ $ ~ ",
"` i.B.i.~ % $ $ f ~ &.~ % @ + + $ - ] y $ @ + + % - &.~ - $ @ $ % - &.y % $ . . - e &.~ % $ @ $ % - i.&.- % @ $ f &.i.&.&.m % f ",
"~ i.B.i.f m ~ m % &.&.~ $ % % % $ e y - $ % % % $ ~ &.&.$ % m - % ~ &.&.% % $ $ % ~ &.] % % - f % q i.&.% % m - % &.B.i.f ~ &.w.",
"` i.i.i.~ &.i.&.- ` &.&.- q &.~ % ~ - 9 - e &.y % ` &.&.% - i.&.- ~ ] y % ~ &.- % ~ ~ y - q &.` - ~ y y % q &.&.- &.&.5.~ w.B.B.",
"~ ~ $ f f e.B.i.- % @ % % ~ &.~ % % . @ $ y &.y % % + % % ~ &.&.% % + % $ e &.- $ $ . $ $ ~ 5.` % % + % $ - 2.&.- - + - m i.B.B.",
"&.m % % ~ &.i.i.~ % @ $ % q &.~ % $ + + $ - &.y % $ $ $ % q &.` % $ + $ - - y - % $ + + % ~ &.y - $ $ $ - q &.&.q % $ % ~ i.B.B.",
"~ ` ` ~ f &.B.&.% % - % $ - &.` % $ $ $ $ - y - $ - - % $ m 5.&.$ $ % - $ - y - $ % - % $ y &.&.% % - % % ~ 2.&.% - ~ m f i.B.B.",
"` i.B.&.m e.e.&.= f &.~ $ % ~ ~ % % y % $ - y - % f ~ ~ % m ` ~ % - &.- $ - - - $ % - N % f - ~ % - ` - $ ~ ~ ~ - ~ i.&.~ i.i.B.",
"~ i.B.i.f f + % % f w.~ % $ o @ + - ~ % $ $   $ $ - f ~ $ $ . @ + f ~ - + $   + + % - ~ $ @ . $ $ f ` ~ % % X $ % &.i.i.f ~ $ ~ ",
"` i.B.i.~ % @ $ p f &.N $ + + X + % e % $ +   + $ % ~ ~ % $ + + % f ~ - % $ . + % N &.- % $ X @ % f &.~ % + + $ % ~ i.&.~ f % f ",
"~ i.B.i.f f m f % ~ &.~ $ % % $ $ - y - $ % % $ $ m ` &.% % f f % - &.~ + $ % $ $ - &.~ % % $ % $ f &.~ $ % m - % ~ i.&.f ~ &.w.",
"` i.i.i.~ &.i.&.- ` &.&.- % ` ~ $ e y - $ - ` - % y - ~ - f &.~ % ~ &.~ $ $ y = $ - y ~ - m &.- % - ~ ` % m &.~ - &.&.&.~ w.B.B.",
"~ ~ $ f f &.i.2.- % + % % - 5.y $ $ . + $ - &.` % % X $ % q &.&.% % X $ % - y 9 $ $ . $ $ - &.` $ $ X $ % ~ 5.&.% - + - f i.B.T.",
"&.m % % ~ &.i.&.m $ @ $ % ~ &.~ % + . . $ y y y % $ @ $ % - &.~ - $ @ + % - y y $ + + $ - y 2.` - % + @ % &.3.&.~ % $ % ~ i.B.B.",
"~ ` ` ~ - &.B.&.% % - - $ q &.- $ $ $ $ $ - &.&.% % - % $ ~ &.~ $ - - % % - &.} $ $ $ % $ - &.~ $ - % - $ y 5.~ % - - ~ - i.P.B.",
"` i.B.i.~ &.&.&.- ~ &.q % &.~ y % = y e $ - - &.% - &.~ % &.~ ` % - &.- $ - & y $ - y q % - - ~ % q ~ - % &.~ ~ % y i.&.m i.i.B.",
"m i.B.B.f f @ % % &.&.&.$ $ . + $ - - y $ $   @ $ % ~ y $ % . $ $ ~ &.- + + . @ + $ &.` $ $ . @ % m ~ ~ % % X % % ~ 5.5.m ~ $ ~ ",
"` i.B.i.~ % $ $ % ~ &.~ % @ + X + $ y - + . X @ $ - y - f $ + + % m ~ ~ $ X + . $ - &.q % + + + % - &.m % $ + + % ~ 5.&.~ - % f ",
"f i.B.i.% f - % % m ~ f $ % $ $ X $ &.= X $ % $ + % ~ - $ $ % % $ - ~ % + $ + + $ $ - - + + $ % + % &.- + $ % % $ &.i.&.f ~ ` w."
};
