/* XPM */
static char *_a4b40c185cd44d28f2eb6745cb7bf42P9incelToilypxII[] = {
/* columns rows colors chars-per-pixel */
"64 64 256 2 ",
"   c #1B1B12",
".  c #261D17",
"X  c #351C13",
"o  c #28180B",
"O  c #1D251C",
"+  c #37260D",
"@  c #2B241A",
"#  c #382818",
"$  c #3D3419",
"%  c #382C26",
"&  c #3B3528",
"*  c #3E323C",
"=  c #3D3535",
"-  c #332A2C",
";  c #541910",
":  c #482B0D",
">  c #462917",
",  c #572618",
"<  c #48351A",
"1  c #542F13",
"2  c #6E3203",
"3  c #67291C",
"4  c #6B3411",
"5  c #48372A",
"6  c #583826",
"7  c #443938",
"8  c #542F2B",
"9  c #672C25",
"0  c #683828",
"q  c #743429",
"w  c #663832",
"e  c #75342C",
"r  c #594528",
"t  c #494337",
"y  c #584A36",
"u  c #574E32",
"i  c #644A2C",
"p  c #67462A",
"a  c #754A2C",
"s  c #75512B",
"d  c #684C32",
"f  c #784935",
"g  c #6B5B3C",
"h  c #685437",
"j  c #7B553B",
"k  c #7B5C3C",
"l  c #765537",
"z  c #79613F",
"x  c #3D3440",
"c  c #443944",
"v  c #564B45",
"b  c #554C4C",
"n  c #685C44",
"m  c #765D43",
"M  c #604C41",
"N  c #736345",
"B  c #776549",
"V  c #7B6B4D",
"C  c #786748",
"Z  c #7C6D51",
"A  c #7D6C5A",
"S  c #7D7154",
"D  c #6D6550",
"F  c #796767",
"G  c #823A34",
"H  c #8B4817",
"J  c #85542B",
"K  c #985728",
"L  c #86583A",
"P  c #915430",
"I  c #A65C32",
"U  c #99633A",
"Y  c #A66937",
"T  c #B3753A",
"R  c #A8682C",
"E  c #865C43",
"W  c #915F46",
"Q  c #B45C4C",
"!  c #8C644A",
"~  c #846B4D",
"^  c #8B6B4C",
"/  c #876446",
"(  c #9B6B4B",
")  c #956749",
"_  c #9B724C",
"`  c #816F52",
"'  c #8B6952",
"]  c #9C6B52",
"[  c #966A55",
"{  c #847354",
"}  c #867659",
"|  c #89765A",
" . c #8C7B5C",
".. c #877857",
"X. c #937353",
"o. c #9B7353",
"O. c #97795A",
"+. c #8D7048",
"@. c #A56D48",
"#. c #A8744C",
"$. c #B67948",
"%. c #A56B55",
"&. c #A47D5C",
"*. c #AC7D5B",
"=. c #A87556",
"-. c #B27B53",
";. c #B27D5B",
":. c #B56C41",
">. c #8E7E61",
",. c #877569",
"<. c #927D62",
"1. c #9C7C68",
"2. c #907168",
"3. c #A97964",
"4. c #B37D65",
"5. c #AE6E64",
"6. c #C17B49",
"7. c #C8796D",
"8. c #C55D51",
"9. c #99845C",
"0. c #8F805F",
"q. c #AC825D",
"w. c #A4855A",
"e. c #B3825D",
"r. c #B8865C",
"t. c #B38F52",
"y. c #B8A65D",
"u. c #8D8162",
"i. c #948365",
"p. c #968568",
"a. c #99866A",
"s. c #968A6A",
"d. c #9B8B6C",
"f. c #9A8664",
"g. c #9D906D",
"h. c #9C8C76",
"j. c #9E9272",
"k. c #9E9B78",
"l. c #8D857A",
"z. c #A38B63",
"x. c #A28D6C",
"c. c #A98766",
"v. c #B48462",
"b. c #BA8564",
"n. c #BC8A66",
"m. c #BC8D6A",
"M. c #B6886A",
"N. c #A4946C",
"B. c #AB956C",
"V. c #AB9C6C",
"C. c #A59366",
"Z. c #B59669",
"A. c #A18E72",
"S. c #A88C74",
"D. c #B98974",
"F. c #A39374",
"G. c #AB9575",
"H. c #A49A75",
"J. c #AB9C74",
"K. c #A5957A",
"L. c #A9967B",
"P. c #A49C7B",
"I. c #AB9C7C",
"U. c #B39C7C",
"Y. c #BC9C7B",
"T. c #B69576",
"R. c #B6A566",
"E. c #ADA075",
"W. c #ADA17C",
"Q. c #A5A07C",
"!. c #BCAD75",
"~. c #B2A37C",
"^. c #B7A677",
"/. c #ADA06C",
"(. c #C88957",
"). c #D09055",
"_. c #CDB753",
"`. c #CDB954",
"'. c #CBB65D",
"]. c #CCB85D",
"[. c #C4B25F",
"{. c #C0AD5E",
"}. c #C78C66",
"|. c #C2936C",
" X c #C89568",
".X c #D99966",
"XX c #C49373",
"oX c #C79B79",
"OX c #CD9472",
"+X c #C5B46C",
"@X c #C5B466",
"#X c #CCA17C",
"$X c #D9A779",
"%X c #C0B179",
"&X c #D7A465",
"*X c #E5A66B",
"=X c #E7A877",
"-X c #F1AD75",
";X c #F3B578",
":X c #E09F69",
">X c #9C9687",
",X c #AC9E81",
"<X c #A69C85",
"1X c #B2998D",
"2X c #ADA383",
"3X c #A9A38A",
"4X c #B3A484",
"5X c #B5A689",
"6X c #B5AA8A",
"7X c #BBAC8C",
"8X c #B8A785",
"9X c #BBB18D",
"0X c #ACA797",
"qX c #BCAE92",
"wX c #B5A895",
"eX c #BDB292",
"rX c #BBB59B",
"tX c #B9B7A6",
"yX c #B7AEA3",
"uX c #C29984",
"iX c #DC9C81",
"pX c #C7A888",
"aX c #DAAA85",
"sX c #C9B48C",
"dX c #DAB28C",
"fX c #CBAA96",
"gX c #C2B494",
"hX c #CCBD96",
"jX c #C4B59A",
"kX c #C5BA9B",
"lX c #CBBD9C",
"zX c #C8B595",
"xX c #D4BB9A",
"cX c #D4AD92",
"vX c #EAB18A",
"bX c #CCBEA2",
"nX c #C5BBA9",
"mX c #D5BEA4",
"MX c #C1BDB2",
"NX c #EFB1A8",
"BX c #CDC09C",
"VX c #D1C19C",
"CX c #CCC1A2",
"ZX c #C9C3AA",
"AX c #D3C4A6",
"SX c #D4C7B8",
"DX c #CBC8B3",
"FX c #F1CDB4",
"GX c #E8C797",
"HX c #D8D1C8",
"JX c #EBD2CC",
"KX c #E9E7D6",
"LX c #F1EEDA",
"PX c #E7E3CA",
"IX c #F0F2E2",
"UX c #DEE0D2",
/* pixels */
"s.s.g.g.j.j.F.F.K.K.,XF.2XW.8X~.9XsX9XlXZXDXZXtXKXIXUXMXDXrXrXeX6X6X3X2X3XP.k.k.P.P.2XlXlXAXbXAXAXVX%X+X@X]._.`.`.`.`.`.`.`.`.`.",
"g.g.j.j.j.j.j.F.K.P.P.K.I.2X2X9XeX6XkXbXZXSXwXPXIXIXMXDXZX6XeX9X9X6X2XQ.Q.Q.Q.Q.P.P.6XBXlXCXbXbXAXhX%X+X'.`._.`.`.`.`.`.`.`.`.`.",
"j.j.j.j.j.j.j.F.I.F.P.6X,X3X3X3XwXrXrXZXZXSXwXKXKXPXtXZXrXeXgX5X4X2XQ.I.Q.P.k.j.P.H.6XCXlXCXbXbXbXhX%X+X'.`._.`.`.`.`.`.`.`.`.`.",
"j.j.j.j.j.j.F.F.F.Q.<XK.<X>Xb v v ,.yXSXHXDX3XLXLXSXZXrXeXqX8XU.4X4XU.H.F.I.W.Q.H.H.6XBXlXlXbXbXbXhX%X+X'.`._.`.`.`.`.`.`.`.`.`.",
"K.F.j.j.j.F.j.H.Q.P.<Xy 7 7 * 7 7 v 7 v >XMXHXLXKXtXZXjXjXgXgXxXxXxXxXpXU.G.G.G.L.I.7XlXlXlXbXbXbXhX%X+X].`.`.`.`.`.`.`.`.`.`.`.",
",XK.F.F.F.F.F.H.j.<X& 7 - * c c c * c * = D KXLXPXDXCXlXgXpXpXpXpXcXxXxXsX8XU.U.~.4XjXkXCXlXCXbXCXhX%X+X'.`.`.`.`.`.`.`.`.`.`.`.",
"5X,XP.H.H.H.H.P.<Xy 5 = c * * * c * c x * 7 D yXnXAXjXzXpXpXpXY.pXpXcXpXpXoXY.^.8XgXhXkXAXbXZXCXCXlX%X+X'.`._.`.`.`.`.`.`.`.`.`.",
"6X2XI.W.W.E.P.<Xh.7 - * * * * * * c * c * b v ,.SXmXfXpXpX#XoXoXXXoXpXaXpXoXY.Y.pXhXxXjXAXlXCXCXAXxX%X+X'.`._.`.`.`.`.`.`.`.`.`.",
"jX5X4XW.N.4XP.3X7 b b c b * = - 7 @ 7 b b b 7 7 wXbXfXcXcXpXoXoXoXoXoXoXoXoXoXoXY.^.pXzXlXlXCXCXbXVX!.+X@X`.`.`.`.`.`.`.`.`.`.`.",
"jX6X6XW.4XQ.P.l.7 7 c c = 7 % y # M & & = = = F h.wXfXcXuXXXXXm.XXXXoXoXoXXXXXXXT.Y.sXVXAXlXlXCXbXVX!.+X@X`.`.`.`.`.`.`.`.`.`.`.",
"qXqX2XQ.Q.j.>X7 - * c 7 % % h F.F.<.5 7 = 7 7 v wXfXuXuXoX#XoX|.XXXXXXXX|.|.m.m.c.c.Y.zXxXlXCXCXCXVX!.+X@X`.`.`._._.`.`.`.`.`.`.",
"kX6X6X3X3X3Xl.% . = = % v ,.m G.L.L.<.5 y % 5 ,.wXfXuXXXm.|.n.n.b.b.n.n.n.b.r.q.M.q.Z.pXxXlXCXCXbXVX!.+X].`.`.`.`.`.`.`.`.`.`.`.",
"LXrX0X0X0X0X& % @ @ % M m ` f.T.c.Y.i ` A 5 < wXL.T.T.XXn.v.*.v.*.4.b.b.n.n.r.e.v.&.c.Y.hXlXCXlXbXVX!.+X].`.`.`.`.`.`.`.`.`.`.`.",
"PXHXrXyX0Xv = . . v y p.x.1 ^ c.Z.k 6 <.A.m > 4XY.M.m.n.m.|.m.m.b.v.;.;.r.b.n.b.v.q.c.B.sXzXBXCXbXVX!.+X'.`.`.`.`.`.`.`.`.`.`.`.",
"DXLXKXyXb = . @ @ n h x.B.B.T.Y.T.Z.O.G.F.{ : 9.Z.v.|.n.n.n.m.M.XX|.b.v.b.|. X Xm.n.c.c.pXzXhXlXbXlX!.@X'.`.`.`.`.`.`.`.`.`.`.`.",
"0XMXUXv = @ . . o r h x.T.T.Y.D.=.XXG.G.a.d : O.Z.M.|.q.e.v.M.c.&.*.*.*.v.v.e.=._ o.o.O.sXxXBXlXbXlX!.@X'.`.`.`._._.`.`.`.`.`.`.",
"3Xt t & @ . X o X + u { G.T.T.T.L D.G.K.N + + x.T.M.o.! l l l l m / o.3.3.k s k l k k X.sXlXlXCXbXhX%X@X'.`.`.`.`.`.`.`.`.`.`.`.",
"7 l.& @ . o X > X > < r L.D.L L W E L.s.+ + < A.T.3./ E l d i d d l / ! E l i i i N / X.U.zXkXlXbXhX%X@X].`.`.`.`.`.`.`.`.`.`.`.",
">Xt 5 X 8 8 w w 8 > > < 1.1X0 a f p K.u < <. .| o.[ E l m m l d p d j E j p i h N m ~ X.G.G.7XCXbXhX%X@X].`.`.`.`.`.`.`.`.`.`.`.",
"0X% X w w w 9 e e , < > 6 1.! ' ' m y y 6 m 1.c.v.o.! / z p 6 1 p a [ 4.[ 0 6 i 6 i k ^ U.8XCXlXlXhX%X@X].`.`.`.`.`.`.`.`.`.`.`.",
"n # 8 9 ; ; 3 e 9 , > < > d <.S.<XM @ t 6 ! c.c.m.*.o.X.X.m j E j L 4.uXD.f p d l / ^ c.8XlXCXkXlXhX!.@X].`.`.`.`.`.`.`.`.`.`.].",
"& wX, 9 q 3 ; 3 q 3 , > > o # n v .   5 w f 3.M.m.v.=._ o.X.[ ! [ [ D.D.D.E E E ! ^ ^ c.pXjXkXCXbXhX%X@X].`.`.`.`.`.`.`.`.`.`.].",
"Z FX9 3 q q 3 , 3 3 , , w X   t @   @ # , E ! M.|.e.=.*.=.[ ! ] ] =.D.D.M.) L j ! o.&.z.zXhXCXjXbXhX%X@X].`.`.`.`.`.`.`.`.`.`.`.",
"| p 0 q 3 3 q 0 3 3 , 3.2.o   O O . . X w L 4.b.;.r.-.#.( ] %.3.=.4.M.XXM.%.W ( ) ( +.O.pXhXlXCXlXhX%X@X].`.`.`.`.`.`.`.`.`.`.`.",
"1.0 3 3 3 3 3 0 o.p ; [ 1.X @   O . @ # w f 3.b.r.-.-.-.;.v.3.5.5.D.XXM.M.=.( ( #.( _ X.sXVXBXlXlXhX!.R.].`.`.`.`.`.`.`.`.`.`.`.",
"T.0 e 9 q f 3 0 T.^ 1 E 2.8 @ O @ - . # 9 f 3.;.-.-.#.-.b.b.=.%.M.4.4.%.] ( %.@.#._ _ 9.sXhXhXlXlXhX!.R.].`.`.`.`.`.`.`.`.`.`.`.",
"0 q 9 G q e 3 0 X.X.l [ 5.8 # % @ - % # w 0 3.q.r.-.-.-.-.%.%.=.( a a L J a W ( ( ( +.z.sXhXlXlXlXhX!.R.].`.`.`.`.`.`.`.`.`.`.`.",
"0 0 e G q e 9 , d ' f.' 3.w # @ & @ % # 0 w a M.e.#.#.-.@.) =.=.L a a p 0 a ) ( U ) / T.hXhXlXBXlXhX!.R.].`.`.`.`.`.`.`.`.`.`.`.",
"0 0 q e e ; 0 T.' ~ ' ^ c.1.y <Xh.& # # 6 0 S.Y.q.*.#.( @.( ( L j a p p p s L L U ) +.^.VXlXlXlXlXhX!.y.].`.`.`.`.`.`.`.`.`.`.`.",
": > 9 e 9 > p S./ ~ ~ ^ c.1.h.A @ # # ,.uXfXAXN.c.q._ ( *.L s s s p p i l a a l L ) X.8XlXBXlXZXlXhX!.y.].`.`.`.`.`.`.`.`.`.`.`.",
"h > , 6 > X > d.d ~ / ^ ' ` # $ h u.ZXqX5XfX7X4Xf.O._ #.q.J s s s h h r r i l s L / 9.8XkXCXnXZXbXhX!.y.'.`.`.`.`.`.`.`.`.`.`.`.",
" .<.m 8 # + Z h ' X.m i r $ ,XrXkXkXZXjX5XzXgX7Xx.O.&.*.#.J J : : : 1 1 : : 6 a L ^ N.7XlXCXbXbXlXhX!.R.@X].'.'.].].].].`.`.].].",
"x.O.m i + > 1.d 6 r > : r qXqXgX8X4X7XqX,X7XjX7XG.O.&.=.#.) ( L L l a a a l L L ! O.G.G.7XbXCXCXlXBX!.V.R.y.y.{.y.y.[.[.'.'.'.'.",
"d r m C r > 1.6 > > < p.lXbXlXkXjX4XL.K.F.4XgXgX8Xc.o.=.v.=.-.=.] ! L L L W ! ) ^ ^ G.U.4X8XqXkXjXhX9XE.^.^.R.R.R.y.y.t.t.y.y.y.",
" .~ ` { { r h > > B bXgXgXbXgXlXzX7X4XK.d.F.4XgX8XU.X.o.*.*.*.=.( ! L L ) ) ) X.^ ^ U.8X5X5X7XeXgXjXgX8X~.^.^./.R.R.V.V.V.V.R.R.",
" .0.p.V Z < + + h.jXbXbXkXgXkX6XgXgXgX4XF.p.F.8X8X8X1.&.c.M.*.=.] ( ( ( ] o.o.X.k ' F.8X7X7XeX7XgXgXjXgX8X~.^.^.E.E.^.^.^././.V.",
"F.s.u V 5 + # 5XqXkXkXgXgXCXgXgXgX7X8XI.F.i.d.I.gXU.S.^ &.&.M.v.4.=.5.=.] =.o./ d ~ { L.eX6XgX7X7X5XqXkXgX5X4XI.W.E.E.J.J.E.U.U.",
"B u u n # + p.P.6X6X5XeXgX7X9XkXjX7X5XI.F.p.i.d.4XgXU.O./ c.c.&.4.%.%.%.) [ ! i h ~ N d.7X2X7X8X4XK.I.7X9X7X5XW.~.~.~.W.W.W.W.W.",
"n u n u + r jXCXjXbXeXeXeX6XgX7X7X7X8X4XF.s.>.>.I.4Xi.r d k ^ ^ [ ) ! ! / / l r B { Z F.4X2XI.L.F.d.g.J.W.~.~.~.J.E.E.E.W.E.J.J.",
"g n S $ + n eXbXkXbXeXeXeXeX7X8X4X4XI.I.j.d.>. .s.p.r r g N i l E E j l l d i d C ..s.Q.2X,XA.i.f.g.F.H.G.H.J.B.J.J.J.E.E.E.J.E.",
"h u.Z $ $ kXkXkXkXkXgXgX9X7X8X4X4XU.F.L.F.p.i.>.i.N r u N C h r r i i h r i C h B ..j.P.F.i.<.i.x.d.F.J.J.N.N.N.E.V.V././.V.V./.",
"h.Z S <  .qXeXkXqXeXeXgXgX7X4X~.I.L.F.L.F.p.p.i.>.V g g g g h h r r r r r h V V B  .s.i... .d.L.A.G.L.L.F.x.g.N.J.V.V././.V.V./.",
"B } n < 6XkXlXkXkXjXgX7X7X8X4X~.L.L.F.F.F.p.p.p.u.{ V N N n g g g g B V B V Z S S S { { u.A.G.F.L.L.L.F.A.d.x.N.J.B.B.V.V.V.V.V.",
"} Z u.Z jXkXlXgXgXeXgXgX7X8X~.L.K.F.j.F.d.i.p.p.i. .{ Z S Z V B N B V V V B N B V {  .s.F.F.F.F.,XK.A.A.A.d.x.F.J.J.B.B.B.B.B.B.",
"n Z V I.kXgXeX8X6X5X4X4X4X4XI.L.F.A.d.d.d.i.p.s.i.i. . ...{ { { S S B V V V ` .. .p.F.F.A.d.F.I.L.F.h.F.j.a.s.N.J.J.G.B.B.B.B.B.",
"h K.h 6XqXqXeXgXeX6XI.F.d.d.F.F.d.s.p.s.s.p.s.d.p.i.i.u. . . .i...} V V { ` | <.d.A.j.d.d.L.I.L.d.d.F.F.s.i.p.F.I.I.J.N.N.B.N.N.",
"N g s.bXAXgXeX7XeX7X5XI.F.d.p.i.s.p.<.a.s.p.d.x.d.i.0.i.p.p.p.p.g.0.{ { | <.<.A.h.F.F.j.F.I.L.F.p.g.F.d.0. .p.g.~.W.J.N.N.N.N.C.",
"d.h ,XgXBXBXkXkXgXeX7X2XH.d.s.p.p.i. .i.a.p.d.d.p.i.i.s.s.p.s.d.d.{  . .<.d.1.x.G.S.x.G.I.I.F.i.F.H.F.i.....i.f.5X4XI.G.N.N.C.C.",
"g ..7XgXgXkXgX6XF.F.F.K.K.F.s.<...| | |  .i.d.d.i.p.i.s.d.d.F.N.d.C i.p.i.d.x.T.pXm.B.U.G.d.h.h.,Xg.u.....{ ..j.P.3XP.g.C.C.C.C.",
"N 5XAXkX7X4X5X6X7XqX8XI.F.F.d.i.| { Z { | i.s.p.i.s.s.d.d.d.F.F.0.0. .p.F.f.z.pX$X X|.Z.B.x.d.,Xi.| ..{ {  . .p.s.s.j.H.z.z.C.9.",
" .7XgXeXgX4X4X4X7X4XI.,X4XL.A.d. .V V Z { i.a.i.i.s.s.d.d.d.F.F. .| d.d.d.9.Z.$X.X).=X$Xn.M.w.9.T.O.{ ~ C ~ | <.p.p.g.N.f.z.B.9.",
"i.2X4X7X4X4X8X7X7XjXgX8X5X5XK.<. .V V V `  .i.p.i.s.a.d.F.F.F.p.s.d.a.f.z.Z.r.$X-X-X*X*X=X$X X|.q.X.^ C l m ' O.{ g.C.z.B.B.C.f.",
"s.8XgX8XI.6X7XgX7X5X5X5XI.s.i.p.i.V V V V .. .i.p.d.d.F.F.F.d.i.p.>.c.T.vXOX$X}.*X*X-X-X&X).*X=X X#XoXO.E j j ! O.C.z.9.C.z.z.z.",
"F.gXjX7XjXkX7XgXgXgX5XF.p.a.s.p.a.B B V V |  . .p.d.d.F.d.i.i.i.d. .dX-.@.@.-.(.(.=X:X*X;X;X;X=X=X$XaXNXFXvXv.( &.w.w.c.c.w.z.C.",
"F.gXkXlXAXkXkXkX8XI.F.F.L.K.F.F. .g N V V |  . .i.p.p.p.i.| i.a.f.pX#.Y Y $.r.n.#XvX=X*X*X=X=X.XvXOX XOX$XaX$XvX#XdXdXdX#XM.w.9.",
"L.gXkXlXCXlXSX5X,X,X4X4X4XI.A.p.V i m V B { | i.p.i. .>. .| p.x.pXm.Y R T T -.n.XX}.).:X-X:X.XvX=X=X=X.X(..X.X(.OXvXaX|.|.e.w.w.",
"lXlXjXkXlXlXjX5XqX8X7XgX4XF.i...B h N V C ` |  .p.| | s.<. .d.1.Y.XXY R R T -.b.}.}.:X.X*X*XvXvX=XvX$XY Y Y (.T r.$XOX$Xe.#.q.w.",
"lXkXjXlXlXgXeXgXgXeX7XI.d.p.a.p.N h m C B V | <.<. .i.>.| p.s.| T.oX}.(.)..X.X}.}..X.X)..X.X=X=X=X*Xr.Y $.(.K H r.=X=X(.(.}._ q.",
"eXkXkXkXgXeXgX7X5X5X4X,XI.L.d...N g N C N V { i.i.<.p...| s. .V O.oXvX=X=X-X-X-X;X*X.X).T R :..X=X(..XY Y K H Y (.=X=X.X$.U v.c.",
"eXkXjXgXgXgXgX8X4X6X5XI.d.i.{ B V g N C B B { >.i. . .| >.i.` C [ M.iXvX=X.X.X-X*X-X*X-X*XT K .X.X(.R J 2 ; I I (.)..X(.(.J ] c.",
"kXgX7XjXjX7X8X4X,XL.F.j.p.i.p.i.V N B V V V V | >.>.| i.i.{ V ~ %.%.7.vXvXdX#X$X-X-X-X-X*X*X=X-X(.T 2 ; 4 :.Y K $.(.(.=XP 4 a X.",
"eXgXgXjXgX7X7X5X6XI.F.F.d.i. .| Z C V V V V V { | p.i.p.| B V ' %.Q 5.NXFXFXmXxX#XaXvX=X=XvXvX.X6.H 2 2 K I 4 Y T $.r.$.J 4 d ~ ",
"eXlXkXjXgX7X7X4XL.F.d.p.{ V V { Z V V V V ` V { { >.<.| V B V ' Q 8.7.NXJXJXHXSXSXxXGXGX$X$X.XI T K 2 U $.(.(.:.K R Y @.J p O. .",
"gXgX7X7X8XI.F.d.s.>...{ V V { { ` { { V V ` V ` ` V { V B V V [ Q 8.7.NXJXJXHXHXnXbXhXsXGXvX}.Y I K K :.Y $.$.6.$.K U P ;.&.~ p."
};
